<svg id="Layer_1" enable-background="new 0 0 512.048 512.048" height="512" viewBox="0 0 512.048 512.048" width="512" xmlns="http://www.w3.org/2000/svg"><g><g><g><path d="m50.789 382.865c-1.144 0-2.293-.392-3.231-1.194-2.089-1.786-2.335-4.927-.549-7.017l4.025-4.709c3.674-4.297 5.697-9.776 5.697-15.43v-4.479c0-2.748 2.228-4.977 4.977-4.977 2.748 0 4.977 2.228 4.977 4.977-.295 2.085 1.89 14.71-8.085 26.376l-4.025 4.709c-.984 1.153-2.381 1.744-3.786 1.744z" fill="#82878c"/></g><path d="m184.845 110.081h-37.041l-.369 2.16c-1.569 9.183 5.505 17.568 14.821 17.568h8.304c10.235.001 17.479-10.004 14.285-19.728z" fill="#ffb69e"/><g id="XMLID_4807_"><g><path d="m196.123 512.048c-13.075 0-23.674-10.6-23.674-23.674v-189.23c0-13.075 10.6-23.674 23.674-23.674s23.674 10.6 23.674 23.674v189.23c.001 13.075-10.599 23.674-23.674 23.674z" fill="#1e2124"/></g></g><g id="XMLID_4808_"><path d="m138.974 512.048c-13.075 0-23.674-10.6-23.674-23.674v-189.23c0-13.075 10.6-23.674 23.674-23.674s23.674 10.6 23.674 23.674v189.23c0 13.075-10.599 23.674-23.674 23.674z" fill="#373c41"/></g><path d="m86.586 294.971c-.188 0-19.728 6.599-19.728 6.599 0 10.896 8.833 19.728 19.728 19.728s19.728-8.833 19.728-19.728z" fill="#ffb69e"/><path d="m398.478 119.568c-.602-10.879-9.875-19.207-20.788-18.609-1.951.108-5.943 21.877-5.943 21.877s6.519 17.608 8.122 17.519c10.879-.601 19.211-9.908 18.609-20.787z" fill="#ffb69e"/><path d="m377.69 100.959c-66.319 3.667-167.942 9.122-176.088 9.122h-16.757c.002.043.01.085.011.127.448 10.005-8.835 18.525-18.525 18.525-10.386 0-18.076-8.488-18.525-18.525-.002-.043 0-.085-.002-.127h-33.531c-26.016 0-47.286 20.839-47.415 46.552v144.937h39.457v-144.839c.019-3.765 3.812-7.194 7.959-7.194h1.027v149.606h104.498v-150.316c43.144-2.02 146.131-7.701 160.072-8.472z" fill="#1e2d64"/><circle cx="167.528" cy="57.729" fill="#ffb69e" r="41.453"/><path d="m198.807 0-59.795 7.491c-7.144 0-12.935 5.792-12.935 12.936v21.683h85.666v-29.175c-.001-7.144-5.792-12.935-12.936-12.935z" fill="#1e2d64"/><g><path d="m229.749 24.801h-30.662c-9.56 0-17.309 7.75-17.309 17.309h65.281c-.001-9.559-7.75-17.309-17.31-17.309z" fill="#1e2124"/></g><g><path d="m48.676 348.875c-8.745-11.494-6.509-27.96 4.984-36.706 11.494-8.746 27.961-6.509 36.706 4.985 2.497 3.281 1.86 7.964-1.421 10.461-3.28 2.496-7.964 1.861-10.461-1.421-3.761-4.942-10.842-5.904-15.784-2.144-4.943 3.761-5.904 10.841-2.143 15.784 3.768 4.953 10.829 5.915 15.784 2.144 3.28-2.496 7.964-1.861 10.461 1.421 2.497 3.281 1.86 7.965-1.421 10.461-11.609 8.833-28.007 6.447-36.705-4.985z" fill="#b9b9be"/></g><g><path d="m31.412 418.193c-3.846-1.486-5.759-5.808-4.273-9.653 1.485-3.846 5.807-5.759 9.653-4.273 5.806 2.243 12.321-.64 14.565-6.448 1.084-2.807 1.01-5.867-.208-8.618s-3.435-4.863-6.241-5.947c-5.808-2.242-12.321.64-14.565 6.448-1.486 3.846-5.808 5.758-9.653 4.274-3.846-1.485-5.76-5.807-4.274-9.653 5.214-13.502 20.364-20.214 33.871-14.996 6.526 2.52 11.68 7.432 14.513 13.829 2.832 6.398 3.004 13.516.483 20.042-5.194 13.449-20.313 20.233-33.871 14.995z" fill="#b9b9be"/></g><path d="m208.963 179.231c.004-.124.017-.248.017-.372 0-.274-.009-.545-.017-.816v-19.009c0-2.262-1.834-4.095-4.095-4.095h-27.086c-2.262 0-4.095 1.834-4.095 4.095v19.011c-.009.271-.017.541-.017.815 0 .124.013.247.017.371v.483h.023c.633 8.555 10.545 16.704 15.216 20.09 1.434 1.04 3.366 1.04 4.8 0 4.671-3.387 14.582-11.535 15.216-20.09h.023v-.483z" fill="#00558c"/></g><g><g><g><path d="m320.685 282.929h-40.613c-3.298 0-5.972-2.674-5.972-5.972v-40.612c0-3.298 2.674-5.972 5.972-5.972h40.613c3.298 0 5.972 2.674 5.972 5.972v40.612c0 3.299-2.674 5.972-5.972 5.972zm-34.64-11.943h28.669v-28.668h-28.669z" fill="#783c28"/></g><g><path d="m345.219 253.104h-89.681c-5.046 0-9.137 4.091-9.137 9.137v62.228c0 5.046 4.091 9.137 9.137 9.137h89.681c5.046 0 9.137-4.091 9.137-9.137v-62.229c0-5.046-4.09-9.136-9.137-9.136z" fill="#965028"/></g><g><path d="m298.118 310.186c-5.972-.199-10.849-3.285-10.849-6.47 0-1.692 1.493-4.181 3.383-4.181 2.091 0 3.783 2.936 7.466 3.583v-8.063c-4.579-1.742-9.954-3.882-9.954-10.252 0-6.321 4.679-9.357 9.954-10.103v-1.394c0-.697.796-1.344 1.892-1.344.946 0 1.891.647 1.891 1.344v1.244c3.086.1 8.909.896 8.909 4.33 0 1.344-.896 4.081-3.085 4.081-1.643 0-2.588-1.593-5.824-1.841v7.266c4.529 1.692 9.805 4.031 9.805 10.75 0 6.171-3.981 9.904-9.805 10.85v1.443c0 .697-.945 1.344-1.891 1.344-1.095 0-1.892-.647-1.892-1.344zm.498-22.993v-5.923c-2.239.448-3.185 1.593-3.185 2.787-.001 1.444 1.294 2.34 3.185 3.136zm2.786 9.208v6.669c1.693-.398 3.036-1.344 3.036-3.135.001-1.643-1.243-2.688-3.036-3.534z" fill="#ffda52"/></g></g><g><path d="m470.862 512.046c-.013 0-.024 0-.037 0-13.844-.02-25.051-11.259-25.032-25.104v-193.023c.019-13.831 11.516-25.032 25.343-25.032h.037c13.844.02 24.982 11.259 24.963 25.104v193.024c-.02 13.831-11.448 25.031-25.274 25.031z" fill="#5f6e9b"/></g><g><path d="m395.353 512.048c-12.547 0-23.38-9.402-24.868-22.168l-14.107-121.05c-.454-3.899.014-7.849 1.365-11.534l34.899-95.151c4.768-12.997 19.169-19.671 32.167-14.903 12.997 4.767 19.669 19.169 14.903 32.166l-32.845 89.546 13.417 115.121c1.602 13.751-8.246 26.199-21.998 27.801-.985.116-1.965.172-2.933.172z" fill="#414b82"/></g><path d="m465.743 107.207h-54.321c-16.823 0-30.461 13.638-30.461 30.461v156.286h115.175v-156.286c-.001-16.823-13.57-30.461-30.393-30.461z" fill="#64afff"/><ellipse cx="436.308" cy="46.872" fill="#ffb69e" rx="45.092" ry="45.092" transform="matrix(.383 -.924 .924 .383 226.036 432.03)"/><g><path d="m285.03 234.076c-4.143-10.271.826-21.956 11.098-26.099l68.057-26.285 20.249-21.373 23.929 4.622 5.849 22.264-23.917 25.244c-1.98 2.09-4.387 3.729-7.057 4.806l-72.11 27.919c-10.204 4.116-21.928-.759-26.098-11.098z" fill="#ffb69e"/></g><g><path d="m447.366 123.055c-8.038-7.616-20.733-7.276-28.35.765l-34.581 36.5s29.653 26.878 29.778 26.885l33.918-35.8c7.618-8.04 7.275-20.733-.765-28.35z" fill="#4699f2"/></g></g></g></svg>